ffmpeg version 4.2.7-0ubuntu0.1 Copyright (c) 2000-2022 the FFmpeg developers
  built with gcc 9 (Ubuntu 9.4.0-1ubuntu1~20.04.1)
  configuration: --prefix=/usr --extra-version=0ubuntu0.1 --toolchain=hardened --libdir=/usr/lib/x86_64-linux-gnu --incdir=/usr/include/x86_64-linux-gnu --arch=amd64 --enable-gpl --disable-stripping --enable-avresample --disable-filter=resample --enable-avisynth --enable-gnutls --enable-ladspa --enable-libaom --enable-libass --enable-libbluray --enable-libbs2b --enable-libcaca --enable-libcdio --enable-libcodec2 --enable-libflite --enable-libfontconfig --enable-libfreetype --enable-libfribidi --enable-libgme --enable-libgsm --enable-libjack --enable-libmp3lame --enable-libmysofa --enable-libopenjpeg --enable-libopenmpt --enable-libopus --enable-libpulse --enable-librsvg --enable-librubberband --enable-libshine --enable-libsnappy --enable-libsoxr --enable-libspeex --enable-libssh --enable-libtheora --enable-libtwolame --enable-libvidstab --enable-libvorbis --enable-libvpx --enable-libwavpack --enable-libwebp --enable-libx265 --enable-libxml2 --enable-libxvid --enable-libzmq --enable-libzvbi --enable-lv2 --enable-omx --enable-openal --enable-opencl --enable-opengl --enable-sdl2 --enable-libdc1394 --enable-libdrm --enable-libiec61883 --enable-nvenc --enable-chromaprint --enable-frei0r --enable-libx264 --enable-shared
  libavutil      56. 31.100 / 56. 31.100
  libavcodec     58. 54.100 / 58. 54.100
  libavformat    58. 29.100 / 58. 29.100
  libavdevice    58.  8.100 / 58.  8.100
  libavfilter     7. 57.100 /  7. 57.100
  libavresample   4.  0.  0 /  4.  0.  0
  libswscale      5.  5.100 /  5.  5.100
  libswresample   3.  5.100 /  3.  5.100
  libpostproc    55.  5.100 / 55.  5.100
Routing option strict to both codec and muxer layer
[h264 @ 0x5555e8723e00] Reinit context to 1280x720, pix_fmt: yuv420p
Input #0, mov,mp4,m4a,3gp,3g2,mj2, from '/var/www/html/project/media/video/original/20230608_Soccorso_persona_Trebbia.mp4':
  Metadata:
    major_brand     : mp42
    minor_version   : 0
    compatible_brands: mp42mp41
    creation_time   : 2023-06-08T22:35:16.000000Z
  Duration: 00:01:27.38, start: 0.000000, bitrate: 10359 kb/s
    Stream #0:0(eng): Video: h264 (Main), 1 reference frame (avc1 / 0x31637661), yuv420p(left), 1280x720 [SAR 1:1 DAR 16:9], 10040 kb/s, 29.97 fps, 29.97 tbr, 30k tbn, 59.94 tbc (default)
    Metadata:
      creation_time   : 2023-06-08T22:35:16.000000Z
      handler_name    : ?Mainconcept Video Media Handler
      encoder         : AVC Coding
    Stream #0:1(eng): Audio: aac (LC) (mp4a / 0x6134706D), 48000 Hz, stereo, fltp, 317 kb/s (default)
    Metadata:
      creation_time   : 2023-06-08T22:35:16.000000Z
      handler_name    : #Mainconcept MP4 Sound Media Handler
Input #1, png_pipe, from '/var/www/html/project/static/images/templates/logo.png':
  Duration: N/A, bitrate: N/A
    Stream #1:0: Video: png, 1 reference frame, rgba(pc), 1920x1080 [SAR 2835:2835 DAR 16:9], 25 tbr, 25 tbn, 25 tbc
[Parsed_scale_0 @ 0x5555e8842480] w:1280 h:720 flags:'bilinear' interl:0
[Parsed_scale_2 @ 0x5555e8842b40] w:1280 h:720 flags:'bilinear' interl:0
Stream mapping:
  Stream #0:0 (h264) -> scale (graph 0)
  Stream #1:0 (png) -> scale (graph 0)
  overlay (graph 0) -> Stream #0:0 (libx264)
  Stream #0:1 -> #0:1 (aac (native) -> aac (native))
Press [q] to stop, [?] for help
[h264 @ 0x5555e877dd80] Reinit context to 1280x720, pix_fmt: yuv420p
[graph_1_in_0_1 @ 0x5555e8ea2180] tb:1/48000 samplefmt:fltp samplerate:48000 chlayout:0x3
[Parsed_scale_0 @ 0x5555e9172200] w:1280 h:720 flags:'bilinear' interl:0
[Parsed_scale_2 @ 0x5555e91766c0] w:1280 h:720 flags:'bilinear' interl:0
[graph 0 input from stream 0:0 @ 0x5555e9178640] w:1280 h:720 pixfmt:yuv420p tb:1/30000 fr:30000/1001 sar:1/1 sws_param:flags=2
[graph 0 input from stream 1:0 @ 0x5555e91796c0] w:1920 h:1080 pixfmt:rgba tb:1/25 fr:25/1 sar:2835/2835 sws_param:flags=2
[Parsed_scale_0 @ 0x5555e9172200] w:1280 h:720 fmt:yuv420p sar:1/1 -> w:1280 h:720 fmt:yuv420p sar:1/1 flags:0x2
[Parsed_setsar_1 @ 0x5555e9175f00] w:1280 h:720 sar:1/1 dar:16/9 -> sar:1/1 dar:16/9
[Parsed_scale_2 @ 0x5555e91766c0] w:1920 h:1080 fmt:rgba sar:2835/2835 -> w:1280 h:720 fmt:yuva420p sar:1/1 flags:0x2
[Parsed_setsar_3 @ 0x5555e9176cc0] w:1280 h:720 sar:1/1 dar:16/9 -> sar:1/1 dar:16/9
[Parsed_overlay_4 @ 0x5555e91778c0] main w:1280 h:720 fmt:yuv420p overlay w:1280 h:720 fmt:yuva420p
[Parsed_overlay_4 @ 0x5555e91778c0] [framesync @ 0x5555e9177a28] Selected 1/30000 time base
[Parsed_overlay_4 @ 0x5555e91778c0] [framesync @ 0x5555e9177a28] Sync level 2
[libx264 @ 0x5555e877c780] using SAR=1/1
[libx264 @ 0x5555e877c780] using cpu capabilities: MMX2 SSE2Fast SSSE3 SSE4.2 AVX FMA3 BMI2 AVX2
[libx264 @ 0x5555e877c780] profile High, level 3.1
[libx264 @ 0x5555e877c780] 264 - core 155 r2917 0a84d98 - H.264/MPEG-4 AVC codec - Copyleft 2003-2018 - http://www.videolan.org/x264.html - options: cabac=1 ref=1 deblock=1:0:0 analyse=0x3:0x113 me=hex subme=2 psy=1 psy_rd=1.00:0.00 mixed_ref=0 me_range=16 chroma_me=1 trellis=0 8x8dct=1 cqm=0 deadzone=21,11 fast_pskip=1 chroma_qp_offset=0 threads=22 lookahead_threads=5 sliced_threads=0 nr=0 decimate=1 interlaced=0 bluray_compat=0 constrained_intra=0 bframes=3 b_pyramid=2 b_adapt=1 b_bias=0 direct=1 weightb=1 open_gop=0 weightp=1 keyint=250 keyint_min=25 scenecut=40 intra_refresh=0 rc_lookahead=10 rc=crf mbtree=1 crf=18.0 qcomp=0.60 qpmin=0 qpmax=69 qpstep=4 ip_ratio=1.40 aq=1:1.00
Output #0, mp4, to '/var/www/html/project/media/video/watermarks/20230608_Soccorso_persona_Trebbia.mp4':
  Metadata:
    major_brand     : mp42
    minor_version   : 0
    compatible_brands: mp42mp41
    encoder         : Lavf58.29.100
    Stream #0:0: Video: h264 (libx264), 1 reference frame (avc1 / 0x31637661), yuv420p, 1280x720 [SAR 1:1 DAR 16:9], q=-1--1, 29.97 fps, 30k tbn, 29.97 tbc (default)
    Metadata:
      encoder         : Lavc58.54.100 libx264
    Side data:
      cpb: bitrate max/min/avg: 0/0/0 buffer size: 0 vbv_delay: -1
    Stream #0:1(eng): Audio: aac (LC) (mp4a / 0x6134706D), 48000 Hz, stereo, fltp, delay 1024, 128 kb/s (default)
    Metadata:
      creation_time   : 2023-06-08T22:35:16.000000Z
      handler_name    : #Mainconcept MP4 Sound Media Handler
      encoder         : Lavc58.54.100 aac
[Parsed_overlay_4 @ 0x5555e91778c0] [framesync @ 0x5555e9177a28] Sync level 0
No more output streams to write to, finishing.
frame= 2618 fps= 81 q=-1.0 Lsize=  108692kB time=00:01:27.36 bitrate=10192.4kbits/s speed=2.71x    
[AVIOContext @ 0x5555e87220c0] Statistics: 0 seeks, 63 writeouts
video:107340kB audio:1257kB subtitle:0kB other streams:0kB global headers:0kB muxing overhead: 0.087568%
Input file #0 (/var/www/html/project/media/video/original/20230608_Soccorso_persona_Trebbia.mp4):
  Input stream #0:0 (video): 2618 packets read (109631208 bytes); 2618 frames decoded; 
  Input stream #0:1 (audio): 4095 packets read (3465594 bytes); 4095 frames decoded (4193280 samples); 
  Total: 6713 packets (113096802 bytes) demuxed
Input file #1 (/var/www/html/project/static/images/templates/logo.png):
  Input stream #1:0 (video): 1 packets read (111578 bytes); 1 frames decoded; 
  Total: 1 packets (111578 bytes) demuxed
Output file #0 (/var/www/html/project/media/video/watermarks/20230608_Soccorso_persona_Trebbia.mp4):
  Output stream #0:0 (video): 2618 frames encoded; 2618 packets muxed (109916419 bytes); 
  Output stream #0:1 (audio): 4095 frames encoded (4193280 samples); 4096 packets muxed (1287005 bytes); 
  Total: 6714 packets (111203424 bytes) muxed
[AVIOContext @ 0x5555e8725e80] Statistics: 2 seeks, 428 writeouts
[libx264 @ 0x5555e877c780] frame I:15    Avg QP:16.98  size:143174
[libx264 @ 0x5555e877c780] frame P:720   Avg QP:20.12  size: 74763
[libx264 @ 0x5555e877c780] frame B:1883  Avg QP:22.70  size: 28645
[libx264 @ 0x5555e877c780] consecutive B-frames:  1.0%  8.7%  2.2% 88.2%
[libx264 @ 0x5555e877c780] mb I  I16..4:  7.5% 12.4% 80.1%
[libx264 @ 0x5555e877c780] mb P  I16..4:  4.8% 14.5% 14.5%  P16..4: 27.7% 17.3% 17.2%  0.0%  0.0%    skip: 4.2%
[libx264 @ 0x5555e877c780] mb B  I16..4:  1.0%  1.3%  0.5%  B16..8: 29.2% 14.9%  5.6%  direct:18.3%  skip:29.1%  L0:37.7% L1:30.7% BI:31.6%
[libx264 @ 0x5555e877c780] 8x8 transform intra:41.9% inter:20.4%
[libx264 @ 0x5555e877c780] coded y,uvDC,uvAC intra: 77.4% 38.0% 7.6% inter: 38.1% 11.1% 1.0%
[libx264 @ 0x5555e877c780] i16 v,h,dc,p: 26% 33% 31% 10%
[libx264 @ 0x5555e877c780] i8 v,h,dc,ddl,ddr,vr,hd,vl,hu: 11% 42% 18%  3%  4%  2% 10%  2%  7%
[libx264 @ 0x5555e877c780] i4 v,h,dc,ddl,ddr,vr,hd,vl,hu: 10% 39% 13%  4%  6%  4% 12%  3%  9%
[libx264 @ 0x5555e877c780] i8c dc,h,v,p: 57% 26% 14%  3%
[libx264 @ 0x5555e877c780] Weighted P-Frames: Y:1.8% UV:0.0%
[libx264 @ 0x5555e877c780] kb/s:10066.24
[aac @ 0x5555e877d900] Qavg: 6623.244
[AVIOContext @ 0x5555e872b040] Statistics: 113156001 bytes read, 0 seeks
[AVIOContext @ 0x5555e87beb40] Statistics: 111578 bytes read, 0 seeks
